<svg width="215" height="24" viewBox="0 0 215 24" fill="none" xmlns="http://www.w3.org/2000/svg">
<path d="M97.2643 5.49446H96.774V5.22633L98.0413 5.22856V5.49669H97.5511L97.5487 6.94907H97.2643V5.49446ZM98.2702 5.22856H98.7166L99.1305 6.45079H99.1374L99.5514 5.22856H100L99.9977 6.94684H99.7156L99.7179 5.56596H99.7133L99.2253 6.94684H99.0264L98.5477 5.56373H98.5431L98.5408 6.9446H98.2702V5.22856ZM88.5299 5.16376C87.7668 5.16376 87.1933 5.64863 87.0939 6.34578C86.1295 5.38721 84.7235 4.85988 83.1094 4.85988C79.1365 4.85541 76.0192 7.87189 76.0146 11.7285C76.0146 11.8224 76.0169 11.914 76.0215 12.0056C77.5154 12.5731 78.5746 13.9808 78.5722 15.6231C78.5722 16.0655 78.4913 16.4901 78.3479 16.8856C79.5851 17.938 81.2316 18.5636 83.0909 18.5659C84.6889 18.5681 86.2012 17.8129 87.0684 17.0174C87.1332 17.7771 87.709 18.2955 88.5114 18.2977C89.4203 18.2977 89.9868 17.7525 89.9868 16.8722L89.9984 6.57145C90.003 5.71567 89.4249 5.16376 88.5299 5.16376ZM83.0747 15.5471C80.8986 15.5449 79.1273 13.8311 79.1319 11.724C79.1342 9.61921 80.9079 7.90764 83.084 7.90988C85.26 7.91211 87.0314 9.62592 87.0291 11.733C87.0268 13.8378 85.2531 15.5494 83.0747 15.5471ZM62.5905 5.13695C61.8274 5.13695 61.2538 5.62182 61.1544 6.31896C60.1901 5.36039 58.7841 4.83307 57.1699 4.83307C53.197 4.8286 50.0821 7.84508 50.0775 11.7017C50.0728 15.5963 53.1161 18.5346 57.1561 18.539C58.7563 18.5413 60.2664 17.786 61.1336 16.9906C61.1983 17.7503 61.7742 18.2687 62.5766 18.2709C63.4854 18.2709 64.052 17.7257 64.052 16.8454L64.0636 6.54464C64.0636 5.68885 63.4854 5.13695 62.5905 5.13695ZM57.0358 15.5181C54.8597 15.5159 53.0884 13.8021 53.0907 11.695C53.093 9.59017 54.8667 7.87859 57.0428 7.88083C59.2211 7.88306 60.9902 9.59687 60.9879 11.7039C60.9879 13.8088 59.2142 15.5203 57.0358 15.5181ZM12.5199 0C11.6227 0 11.0446 0.549669 11.0446 1.40099L11.0399 6.28098C10.1149 5.309 8.72512 4.77721 7.09479 4.77497C3.31846 4.77274 0.00462987 7.98138 4.84224e-06 11.6458C-0.00462018 15.2835 3.30459 18.4787 7.07861 18.4832C8.75287 18.4854 10.3207 17.652 11.1509 16.8297C11.3128 17.7235 11.8701 18.2128 12.7373 18.2128C13.4542 18.2128 13.9745 17.681 13.9768 16.9481L13.9953 1.40545C13.9953 0.56531 13.4033 0.00223443 12.5199 0ZM7.05317 15.4645C4.87709 15.4622 3.10571 13.7484 3.10802 11.6414C3.11033 9.53654 4.88403 7.82497 7.06011 7.8272C9.23618 7.82944 11.0076 9.54324 11.0053 11.6503C11.0029 13.7551 9.22924 15.4667 7.05317 15.4645ZM33.9708 5.10567C33.0273 5.10567 32.5417 5.53021 32.4191 6.47984C31.5404 5.62182 29.991 4.80179 28.3352 4.80179C24.5612 4.79732 21.2451 7.99702 21.2427 11.6458C21.2381 15.2969 24.545 18.5011 28.3213 18.5055C30.028 18.5078 31.3762 18.005 32.2411 17.0487C32.1578 19.8104 30.7772 21.1511 28.0323 21.1489C27.1373 21.1489 26.5569 21.7075 26.5546 22.5722C26.5546 23.4794 27.1258 23.9978 28.1225 24C33.3534 24.0067 35.2126 20.3288 35.2149 17.1783L35.2265 6.34801C35.2311 5.62852 34.7016 5.10567 33.9708 5.10567ZM28.2612 15.4868C26.0828 15.4846 24.3138 13.7708 24.3161 11.6637C24.3184 9.55888 26.0921 7.84731 28.2682 7.84954C30.4442 7.85178 32.2156 9.56559 32.2133 11.6727C32.211 13.7797 30.4373 15.4891 28.2612 15.4868ZM94.036 5.07215C93.2082 5.07215 92.5838 5.67321 92.5838 6.47314L92.5352 16.9213C92.5352 17.7615 93.1295 18.3469 93.9852 18.3491C94.894 18.3491 95.4605 17.8039 95.4628 16.9258L95.5114 6.47761C95.5091 5.63746 94.9171 5.07215 94.036 5.07215ZM17.7832 4.93138C16.9553 4.93138 16.331 5.53244 16.331 6.33237L16.3194 16.7917C16.3194 17.6319 16.9137 18.2195 17.7694 18.2195C18.6782 18.2195 19.2447 17.6743 19.2447 16.794L19.2563 6.3346C19.2563 5.49669 18.6643 4.93138 17.7832 4.93138ZM39.2803 4.98948C38.4525 4.98948 37.8281 5.59054 37.8281 6.39046L37.8165 16.8141C37.8165 17.6542 38.4108 18.2419 39.2665 18.2419C40.1753 18.2419 40.7419 17.6967 40.7419 16.8163L40.7534 6.3927C40.7534 5.55479 40.1614 4.98948 39.2803 4.98948ZM48.3315 15.4913C47.3718 15.4131 46.7775 15.1517 46.7798 14.0881L46.7868 8.06405H47.5476C48.3893 8.06405 48.9998 7.4764 48.9998 6.66306C48.9998 5.79611 48.4333 5.2375 47.5499 5.23526H46.7891L46.7937 1.46578C46.7937 0.58542 46.2294 0.0402197 45.3206 0.0379853C44.4673 0.0379853 43.8684 0.623405 43.8684 1.46132L43.8637 5.26655C43.1561 5.36933 42.7214 5.89666 42.7214 6.65636C42.7214 7.37138 43.1746 7.92105 43.8614 8.04618L43.8545 14.1059C43.8522 16.7359 45.3137 18.2463 47.869 18.2508C48.9258 18.253 49.5595 17.7615 49.5595 16.9414C49.5595 16.0924 49.1131 15.565 48.3315 15.4913ZM68.3209 0.0603294C67.4676 0.0603294 66.8686 0.636812 66.8686 1.46132L66.8501 16.8431C66.8501 17.6833 67.4444 18.2709 68.3001 18.2709C69.2089 18.2709 69.7755 17.7257 69.7778 16.8454L69.7963 1.46355C69.794 0.598827 69.2297 0.0625639 68.3209 0.0603294ZM76.8471 14.1261C76.7986 14.0546 76.7454 13.9853 76.6876 13.9205C76.5534 13.7641 76.4008 13.6255 76.2343 13.5004C76.1765 13.458 76.1164 13.4155 76.0539 13.3775C75.7464 13.1831 75.3972 13.0468 75.0202 12.9843C74.8699 12.9597 74.715 12.9463 74.5577 12.9463C74.0814 12.9463 73.6327 13.0625 73.2419 13.268C73.1633 13.3083 73.087 13.3529 73.013 13.4021C72.2776 13.8825 71.7943 14.6936 71.792 15.6164C71.792 16.5392 72.273 17.3526 73.0083 17.833C73.0823 17.8821 73.1587 17.9268 73.235 17.967C73.6258 18.1726 74.0744 18.291 74.5508 18.291C75.2191 18.291 75.8319 18.0631 76.3083 17.6833C76.4447 17.5738 76.5696 17.4531 76.6829 17.3213C76.7407 17.2565 76.7939 17.1872 76.8425 17.1157C76.9419 16.9727 77.0275 16.823 77.0969 16.6621C77.2356 16.3426 77.3143 15.9918 77.3143 15.6231C77.3143 15.2544 77.2379 14.9036 77.0992 14.5819C77.0321 14.4188 76.9466 14.2668 76.8471 14.1261Z" fill="white"/>
<path d="M59.6633 11.1029C59.7095 11.2928 59.735 11.4894 59.735 11.6927C59.735 11.8045 59.728 11.9162 59.7141 12.0234C59.7003 12.1329 59.6795 12.2379 59.6517 12.343C59.5962 12.5508 59.5153 12.7496 59.4112 12.9329C58.9556 13.744 58.0653 14.2959 57.0432 14.2959C55.5562 14.2959 54.3514 13.1295 54.3514 11.6927C54.3514 11.514 54.3699 11.3375 54.4069 11.1677C54.585 10.3208 55.1909 9.62143 55.9979 9.29297C56.3194 9.16114 56.6732 9.0874 57.0455 9.0874C57.4178 9.0874 57.7716 9.16114 58.0931 9.29297C58.6966 9.53876 59.1823 9.99458 59.4667 10.5599C59.5499 10.7319 59.617 10.9129 59.6633 11.1029ZM7.05822 9.0874C5.57127 9.0874 4.36646 10.2538 4.36646 11.6905C4.36646 13.1272 5.57127 14.2936 7.05822 14.2936C8.54517 14.2936 9.7523 13.1272 9.7523 11.6905C9.7523 10.2538 8.54517 9.0874 7.05822 9.0874ZM84.1273 9.29297C84.0464 9.25945 83.9655 9.23041 83.8799 9.20583C83.7527 9.16784 83.6232 9.13879 83.4891 9.11868C83.355 9.09857 83.2185 9.0874 83.0798 9.0874C82.8023 9.0874 82.5317 9.12762 82.2796 9.20359C82.1964 9.22817 82.1131 9.25945 82.0322 9.29074C81.2275 9.6192 80.6216 10.3186 80.4412 11.1654C80.4065 11.3352 80.3857 11.5095 80.3857 11.6905C80.3857 12.41 80.6863 13.0602 81.1743 13.5317C81.2968 13.6501 81.4309 13.7574 81.572 13.849C81.7871 13.9897 82.023 14.1015 82.2773 14.1774C82.5317 14.2534 82.8 14.2936 83.0775 14.2936C83.2162 14.2936 83.355 14.2847 83.4868 14.2646C83.6209 14.2445 83.7504 14.2154 83.8776 14.1774C84.1297 14.1015 84.3678 13.9897 84.5829 13.849C84.7263 13.7551 84.8604 13.6501 84.9807 13.5317C85.4686 13.0602 85.7692 12.41 85.7692 11.6905C85.7692 11.5118 85.7507 11.3352 85.7137 11.1654C85.538 10.3208 84.9344 9.62143 84.1273 9.29297ZM29.3115 9.29297C28.9901 9.16114 28.6363 9.0874 28.264 9.0874C27.8916 9.0874 27.5378 9.16114 27.2164 9.29297C26.4116 9.62143 25.8058 10.3208 25.6254 11.1677C25.5907 11.3375 25.5699 11.5118 25.5699 11.6927C25.5699 13.1317 26.7747 14.2959 28.2617 14.2959C29.7486 14.2959 30.9557 13.1295 30.9557 11.6927C30.9557 11.514 30.9372 11.3375 30.9002 11.1677C30.7245 10.3208 30.1186 9.62143 29.3115 9.29297Z" fill="#517934"/>
<path d="M124 24C130.627 24 136 18.6274 136 12C136 5.37258 130.627 0 124 0C117.373 0 112 5.37258 112 12C112 18.6274 117.373 24 124 24Z" fill="#279FEA"/>
<path d="M127.28 10.9L124.245 9.125L121.205 10.9V14.43L124.245 16.18L127.28 14.43V10.9Z" fill="white"/>
<path d="M118.655 12.0001L117.21 10.7251V16.7501L121.615 19.2551V17.5551L118.655 15.8101V12.0001Z" fill="white"/>
<path d="M129.845 12V15.875L126.945 17.555V19.405L131.28 16.73V10.645L129.845 12Z" fill="white"/>
<path d="M124.235 6.2L128.075 8.42L129.125 7.335L124.235 4.5L119.32 7.36L120.37 8.45L124.235 6.2Z" fill="white"/>
<path d="M211.235 8.32505H211.695V9.82505H211.965V8.32505H212.465V8.05005H211.23L211.235 8.32505Z" fill="white"/>
<path d="M213.97 8.05005L213.55 9.28505L213.155 8.05005H212.695V9.80005H212.965V8.39505L213.435 9.80005H213.63L214.1 8.39505V9.80005H214.37V8.05005H213.97Z" fill="white"/>
<path d="M142.085 13.6201V13.5751C142.085 9.90006 144.535 7.82006 147.13 7.82006C147.861 7.81498 148.582 7.99083 149.228 8.33194C149.875 8.67306 150.427 9.16883 150.835 9.77506V3.81006H153.335V19.1451H150.835V17.2951C150.448 17.9306 149.904 18.4558 149.255 18.8201C148.606 19.1844 147.874 19.3755 147.13 19.3751C144.575 19.3751 142.085 17.2951 142.085 13.6201ZM150.875 13.6201V13.5751C150.875 11.4351 149.375 10.0251 147.725 10.0251C146.075 10.0251 144.595 11.3901 144.595 13.5751V13.6201C144.595 15.7601 146.035 17.1701 147.725 17.1701C149.415 17.1701 150.875 15.7401 150.875 13.6201Z" fill="white"/>
<path d="M155.415 13.6398V13.5998C155.415 10.4248 157.62 7.81982 160.73 7.81982C164.19 7.81982 165.94 10.5948 165.94 13.7848C165.937 14.0238 165.922 14.2624 165.895 14.4998H157.895C157.955 15.2813 158.314 16.0097 158.897 16.5339C159.479 17.058 160.242 17.3377 161.025 17.3148C161.583 17.3188 162.135 17.2035 162.645 16.9767C163.154 16.75 163.61 16.4169 163.98 15.9998L165.445 17.3198C164.917 17.99 164.24 18.5273 163.467 18.8885C162.694 19.2497 161.848 19.4248 160.995 19.3998C157.845 19.3948 155.415 17.0648 155.415 13.6398ZM163.47 12.8198C163.3 11.1798 162.355 9.89982 160.71 9.89982C159.21 9.89982 158.115 11.0998 157.885 12.8198H163.47Z" fill="white"/>
<path d="M168 8.04982H170.5V9.89982C170.886 9.26572 171.429 8.74143 172.076 8.37722C172.723 8.01301 173.453 7.82108 174.195 7.81982C176.75 7.81982 179.24 9.87982 179.24 13.5748V13.6198C179.24 17.2948 176.77 19.3748 174.195 19.3748C173.464 19.3812 172.743 19.206 172.096 18.8647C171.449 18.5235 170.897 18.027 170.49 17.4198V22.4998H167.99L168 8.04982ZM176.73 13.6198V13.5748C176.73 11.4348 175.285 10.0248 173.62 10.0248C171.955 10.0248 170.45 11.4548 170.45 13.5748V13.6198C170.45 15.7398 171.95 17.1698 173.62 17.1698C175.29 17.1698 176.73 15.8048 176.73 13.6198V13.6198Z" fill="white"/>
<path d="M181.455 3.81006H183.955V19.1451H181.455V3.81006Z" fill="white"/>
<path d="M186.075 13.66V13.62C186.072 12.859 186.219 12.1049 186.507 11.4007C186.796 10.6965 187.22 10.056 187.756 9.51576C188.839 8.42477 190.311 7.8085 191.847 7.80253C193.384 7.79657 194.861 8.40139 195.952 9.48394C197.043 10.5665 197.659 12.0381 197.665 13.575V13.62C197.67 14.384 197.522 15.1412 197.23 15.8472C196.939 16.5533 196.509 17.1941 195.966 17.7319C195.424 18.2698 194.779 18.6939 194.071 18.9795C193.362 19.2651 192.604 19.4064 191.84 19.395C191.082 19.4064 190.33 19.2661 189.627 18.9823C188.925 18.6985 188.286 18.2769 187.749 17.7425C187.212 17.2081 186.787 16.5716 186.499 15.8704C186.212 15.1693 186.068 14.4178 186.075 13.66V13.66ZM195.175 13.66V13.62C195.175 11.665 193.795 10.05 191.84 10.05C189.885 10.05 188.565 11.645 188.565 13.55V13.595C188.565 15.525 189.945 17.145 191.88 17.145C193.9 17.17 195.195 15.575 195.195 13.66H195.175Z" fill="white"/>
<path d="M206.625 8.05005H209.22L204.9 19.44C204.035 21.73 203.065 22.57 201.315 22.57C200.409 22.5817 199.517 22.3411 198.74 21.875L199.585 20C200.028 20.263 200.53 20.4076 201.045 20.42C201.745 20.42 202.18 20.105 202.59 19.16L198.06 8.05005H200.74L203.785 16.285L206.625 8.05005Z" fill="white"/>
</svg>
